<svg height="32" viewBox="0 0 128 32" width="128"
    xmlns="http://www.w3.org/2000/svg">
    <g fill="none" fill-rule="evenodd">
        <g fill="#230078">
            <path d="m47.9954667 21.031369h-2.9954667v-9.0628708h2.9954667c1.2572 0 2.2945333.4203336 3.0857333 1.2521028.7913333.8406672 1.1868 1.9352611 1.1868 3.2837816 0 1.3397553-.3954667 2.4429816-1.1868 3.2748836-.7912.8317692-1.8285333 1.2521028-3.0857333 1.2521028zm0-12.031369h-5.9954667v15h5.9954667c2.0572 0 3.7978666-.7268518 5.178-2.1630248 1.3802666-1.4360402 2.0836-3.2311901 2.0836-5.3325926 0-2.1104333-.7033334-3.9054504-2.0836-5.3416234-1.3801334-1.43590743-3.1208-2.1627592-5.178-2.1627592z"/>
            <path d="m62.2388 21.4450667c-.7912 0-1.4681333-.2637334-1.9868-.8-.5274667-.5361334-.8-1.222-.8-2.0484 0-.8174667.2725333-1.5032.8-2.0394667.5186667-.5362667 1.1956-.8 1.9868-.8s1.4681333.2637333 1.9956.8c.5362667.5362667.8088 1.222.8088 2.0394667 0 .8264-.2725333 1.5122666-.8088 2.0484-.5274667.5362666-1.2044.8-1.9956.8m4.0614667-6.8921334c-1.1076-1.0989333-2.4702667-1.6529333-4.0614667-1.6529333s-2.9538667.554-4.0528 1.6529333c-1.0988 1.0988-1.6526667 2.4614667-1.6526667 4.0437334 0 1.5913333.5538667 2.954 1.6526667 4.0529333 1.0989333 1.0988 2.4616 1.6526667 4.0528 1.6526667s2.9538667-.5538667 4.0614667-1.6526667c1.0989333-1.0989333 1.6616-2.4616 1.6616-4.0529333 0-1.5822667-.5626667-2.9449334-1.6616-4.0437334"/>
            <path d="m79.4637333 13-3.9637333 11h-3.5l-4-11h3.2088l2.5142667 7.2614667 2.5318666-7.2614667z"/>
            <path d="m82.5242667 17.5154667c.1669333-.6065334.466-1.0901334.9054666-1.4329334.466-.3605333 1.0637334-.5450666 1.7758667-.5450666.5977333 0 1.1428.1758666 1.6176.5186666.4396.3252.7472.8088.9054667 1.4593334zm2.6813333-4.6154667c-1.6616 0-3.0417333.5452-4.1056 1.6265333-1.0637333 1.0901334-1.6 2.4526667-1.6 4.0701334 0 1.6353333.5450667 3.0066666 1.6177333 4.0881333 1.0812 1.0724 2.5230667 1.6174667 4.2988 1.6174667 2.066 0 3.6484-.7736 4.7033334-2.312l.0616-.0792-2.3649334-1.3625334-.0438666.0613334c-.5188.6858666-1.3012 1.0286666-2.3121334 1.0286666-1.556 0-2.5056-.5978666-2.8834666-1.8197333h7.9736l.0176-.0792c.0702666-.3954667.1054666-.7824.1054666-1.1429333 0-1.5998667-.5188-2.9624-1.5473333-4.0525334-1.0285333-1.0901333-2.3472-1.6441333-3.9208-1.6441333z"/>
            <path d="m96.3036 16.0285333v4.334c0 .3429334.0790667.5890667.2461333.7385334.1670667.1581333.422.2461333.7561334.2725333.1493333.0088.3164.0088.4922666.0088.2461334 0 .5186667-.0088.8176-.0264h.0878667v2.6549333l-.0790667.0089334c-.5098666.0614666-.9934666.0877333-1.4241333.0877333-1.1693333 0-2.0484-.2110667-2.6198667-.6329333-.8-.5801334-1.1956-1.6264-1.1956-3.1121334v-4.334h-2.0549333v-2.6952h2.0549333v-2.2454666l2.9186667-.8878667v3.1333333h2.0264v2.6952z"/>
            <path d="m105.1004 21.5154667c-.8264 0-1.512-.2813334-2.0396-.8174667-.536267-.5364-.8088-1.2484-.8088-2.1013333 0-.8438667.272533-1.556.8088-2.0921334.5276-.5450666 1.222-.8176 2.0396-.8176s1.512133.2725334 2.0572.8176c.536267.5449334.8088 1.2482667.8088 2.0921334 0 .8529333-.272533 1.5649333-.8088 2.1013333-.545067.5361333-1.2308.8174667-2.0572.8174667zm2.8996-8.5154667v1.3049316c-.8264-.932-1.994-1.4049316-3.409467-1.4049316-1.433066 0-2.690133.554-3.709866 1.6529333-1.0285337 1.0988-1.5473337 2.4614667-1.5473337 4.0437334 0 1.5913333.5188 2.954 1.5473337 4.0529333 1.019733 1.0989333 2.268133 1.6526667 3.709866 1.6526667 1.415467 0 2.583067-.5751119 3.409467-1.5069786v1.2047119h3v-11z"/>
            <path d="m113.178499 10.9887567c-.345622-.3464788-.518499-.7535288-.518499-1.23008488 0-.46788422.172877-.88360612.518499-1.23021623.345622-.35515054.751798-.52845559 1.218394-.52845559.484029 0 .898854.17330505 1.244477.52845559.345753.34661011.51863.76233201.51863 1.23021623 0 .46788418-.172877.88360608-.51863 1.23008488-.345623.3379382-.760448.5112433-1.244477.5112433-.466596 0-.872772-.1733051-1.218394-.5112433"/>
            <path d="m113 24h3v-11h-3z"/>
            <path d="m118 24h3v-16h-3z"/>
        </g>
        <g transform="translate(2)">
            <path d="m28 20-7 4v-8l-7-4.0443543 7-3.9556457 7 4z" fill="#230078"/>
            <path d="m13.9989022 12-7.00000003 4v-8l-6.99890217-4 6.99945109-4 6.99945111 4z" fill="#230078"/>
            <path d="m13.9989022 28-7.00000003 4 .00109783-8-7-4 6.99890217-4 7.00000003 4z" fill="#230078"/>
        </g>
    </g>
</svg>
